# xmcd CD database file
#
# Track frame offsets:
#	150
#	20583
#	47853
#	87936
#	109813
#	138186
#
# Disc length: 2240 seconds
#
# Revision: 0
# Processed by: cddbd v1.5.2PL0 Copyright (c) Steve Scherf et al.
# Submitted via: Feurio! 1.68 - http://www.feurio.com
#
DISCID=4908be06
DTITLE=Lucinda Williams - Paradiso 2006 Second Day Nov 2 2006 2
DYEAR=1900
DGENRE=
TTITLE0=Blue
TTITLE1=Unsuffer Me
TTITLE2=Wrap My Head Around That
TTITLE3=Hard Time Killing Floor Blues
TTITLE4=Still Long for Your Kiss
TTITLE5=2 Cool 2 Be 4-Gotten
EXTD=
EXTT0=
EXTT1=
EXTT2=
EXTT3=
EXTT4=
EXTT5=
PLAYORDER=
